<svg width="12" height="12" viewBox="0 0 12 12" fill="none" xmlns="http://www.w3.org/2000/svg">
<g clip-path="url(#clip0_102_227)">
<path fill-rule="evenodd" clip-rule="evenodd" d="M3.75 0.9375C3.75 0.62684 4.00184 0.375 4.3125 0.375H7.6875C7.99815 0.375 8.25 0.62684 8.25 0.9375C8.25 1.24816 7.99815 1.5 7.6875 1.5H4.3125C4.00184 1.5 3.75 1.24816 3.75 0.9375ZM2.05814 2.0625H0.9375C0.62684 2.0625 0.375 2.31434 0.375 2.625C0.375 2.93566 0.62684 3.1875 0.9375 3.1875H1.53626L1.89721 8.60182C1.92553 9.02678 1.94896 9.37838 1.99099 9.66465C2.03474 9.96262 2.10416 10.235 2.24874 10.4887C2.47381 10.8839 2.81332 11.2015 3.2225 11.3998C3.48535 11.5271 3.7617 11.5783 4.06195 11.6021C4.35034 11.625 4.70278 11.625 5.12865 11.625H6.87135C7.29722 11.625 7.64962 11.625 7.93808 11.6021C8.2383 11.5783 8.51468 11.5271 8.77748 11.3998C9.18668 11.2015 9.5262 10.8839 9.75128 10.4887C9.89587 10.235 9.96525 9.96262 10.009 9.66465C10.0511 9.37838 10.0744 9.0267 10.1028 8.60175L10.4638 3.1875H11.0625C11.3731 3.1875 11.625 2.93566 11.625 2.625C11.625 2.31434 11.3731 2.0625 11.0625 2.0625H9.94185C9.93855 2.06247 9.93532 2.06247 9.93202 2.0625H2.06798C2.0647 2.06247 2.06143 2.06247 2.05814 2.0625ZM9.33623 3.1875H2.66374L3.01823 8.5047C3.04841 8.95747 3.06929 9.26437 3.10405 9.50122C3.13783 9.73117 3.17909 9.84908 3.22624 9.93188C3.33878 10.1294 3.50853 10.2882 3.71312 10.3874C3.79885 10.4289 3.91923 10.4623 4.15098 10.4806C4.38958 10.4996 4.69717 10.5 5.15099 10.5H6.84901C7.30283 10.5 7.6104 10.4996 7.84905 10.4806C8.0808 10.4623 8.20118 10.4289 8.2869 10.3874C8.4915 10.2882 8.66123 10.1294 8.77373 9.93188C8.8209 9.84908 8.86215 9.73117 8.89598 9.50122C8.9307 9.26437 8.95155 8.95747 8.98178 8.5047L9.33623 3.1875ZM4.875 4.59375C5.18566 4.59375 5.4375 4.84559 5.4375 5.15625V7.96875C5.4375 8.2794 5.18566 8.53125 4.875 8.53125C4.56434 8.53125 4.3125 8.2794 4.3125 7.96875V5.15625C4.3125 4.84559 4.56434 4.59375 4.875 4.59375ZM7.125 4.59375C7.43566 4.59375 7.6875 4.84559 7.6875 5.15625V7.96875C7.6875 8.2794 7.43566 8.53125 7.125 8.53125C6.81434 8.53125 6.5625 8.2794 6.5625 7.96875V5.15625C6.5625 4.84559 6.81434 4.59375 7.125 4.59375Z" fill="white"/>
</g>
<defs>
<clipPath id="clip0_102_227">
<rect width="12" height="12" fill="white"/>
</clipPath>
</defs>
</svg>
