<svg width="14" height="14" viewBox="0 0 14 14" fill="none" xmlns="http://www.w3.org/2000/svg">
<path fill-rule="evenodd" clip-rule="evenodd" d="M7 1.75C7.32216 1.75 7.58333 2.01117 7.58333 2.33333V7.92501L9.50421 6.00419C9.73202 5.77638 10.1013 5.77638 10.3291 6.00419C10.5569 6.23199 10.5569 6.60134 10.3291 6.82914L7.41248 9.74579C7.18468 9.9736 6.81532 9.9736 6.58752 9.74579L3.67085 6.82914C3.44305 6.60134 3.44305 6.23199 3.67085 6.00419C3.89866 5.77638 4.26801 5.77638 4.49581 6.00419L6.41667 7.92501V2.33333C6.41667 2.01117 6.67784 1.75 7 1.75ZM2.33333 9.33333C2.6555 9.33333 2.91667 9.59451 2.91667 9.91667V11.0833C2.91667 11.238 2.97813 11.3864 3.08752 11.4958C3.19692 11.6052 3.34529 11.6667 3.5 11.6667H10.5C10.6547 11.6667 10.8031 11.6052 10.9125 11.4958C11.0219 11.3864 11.0833 11.238 11.0833 11.0833V9.91667C11.0833 9.59451 11.3445 9.33333 11.6667 9.33333C11.9888 9.33333 12.25 9.59451 12.25 9.91667V11.0833C12.25 11.5474 12.0656 11.9926 11.7374 12.3208C11.4092 12.6489 10.9641 12.8333 10.5 12.8333H3.5C3.03587 12.8333 2.59075 12.6489 2.26256 12.3208C1.93437 11.9926 1.75 11.5474 1.75 11.0833V9.91667C1.75 9.59451 2.01117 9.33333 2.33333 9.33333Z" fill="#F3F3F3"/>
</svg>
