<svg width="16" height="12" viewBox="0 0 16 12" fill="none" xmlns="http://www.w3.org/2000/svg">
<g clip-path="url(#clip0_8_147)">
<path d="M13.9998 0.400024H1.9998C1.1498 0.400024 0.424805 1.10002 0.424805 1.97502V10.075C0.424805 10.925 1.1248 11.65 1.9998 11.65H13.9998C14.8498 11.65 15.5748 10.95 15.5748 10.075V1.95002C15.5748 1.10002 14.8498 0.400024 13.9998 0.400024ZM13.9998 1.52502C14.0248 1.52502 14.0498 1.52502 14.0748 1.52502L7.9998 5.42502L1.9248 1.52502C1.9498 1.52502 1.9748 1.52502 1.9998 1.52502H13.9998ZM13.9998 10.475H1.9998C1.7498 10.475 1.5498 10.275 1.5498 10.025V2.62502L7.3998 6.37502C7.5748 6.50002 7.7748 6.55002 7.9748 6.55002C8.1748 6.55002 8.3748 6.50002 8.5498 6.37502L14.3998 2.62502V10.05C14.4498 10.3 14.2498 10.475 13.9998 10.475Z" fill="#666666"/>
</g>
<defs>
<clipPath id="clip0_8_147">
<rect width="16" height="12" fill="white"/>
</clipPath>
</defs>
</svg>
