<svg width="44" height="36" viewBox="0 0 44 36" fill="none" xmlns="http://www.w3.org/2000/svg">
<path d="M21.3672 5.80265L22 6.79697L22.6327 5.80265C24.5944 2.7201 28.0551 0.75 32 0.75C38.1858 0.75 43.25 5.81421 43.25 12C43.25 14.7743 41.9744 17.6189 39.9577 20.369C37.9467 23.1112 35.249 25.6908 32.5251 27.9195C29.8048 30.1452 27.0808 32.0027 25.0348 33.3047C24.0126 33.9553 23.1614 34.466 22.5669 34.8134C22.339 34.9466 22.1489 35.0557 22.0014 35.1395C21.8538 35.055 21.6634 34.9449 21.4351 34.8105C20.8405 34.4605 19.9892 33.9462 18.9668 33.2918C16.9206 31.9819 14.1963 30.1148 11.4757 27.8827C8.7514 25.6475 6.05328 23.0644 4.04195 20.3263C2.02447 17.5798 0.75 14.7481 0.75 12C0.75 5.81421 5.81421 0.75 12 0.75C15.9449 0.75 19.4056 2.7201 21.3672 5.80265Z" stroke="#D9D9D9" stroke-width="1.5"/>
</svg>
