<svg width="16" height="16" viewBox="0 0 16 16" fill="none" xmlns="http://www.w3.org/2000/svg">
<g clip-path="url(#clip0_8_151)">
<mask id="mask0_8_151" style="mask-type:luminance" maskUnits="userSpaceOnUse" x="0" y="0" width="16" height="16">
<path d="M16 0H0V16H16V0Z" fill="white"/>
</mask>
<g mask="url(#mask0_8_151)">
<path d="M14.0752 1.92495C13.1252 0.974951 11.8502 0.449951 10.5002 0.449951C9.1502 0.449951 7.8502 0.974951 6.9002 1.92495C5.6252 3.19995 5.1252 4.99995 5.5752 6.74995L0.725195 11.5749C0.550195 11.7499 0.450195 11.9999 0.450195 12.2749V14.5999C0.450195 15.1249 0.875195 15.5749 1.4252 15.5749H3.7502C4.0002 15.5749 4.2502 15.4749 4.4502 15.2999L5.0252 14.7249C5.2252 14.5249 5.3502 14.2249 5.3002 13.9249V13.8749L5.6002 13.8499C6.0752 13.7999 6.4252 13.4499 6.4752 12.9749L6.5002 12.6749H6.5502C6.8252 12.6999 7.1002 12.6249 7.3252 12.4249C7.5252 12.2499 7.6502 11.9749 7.6502 11.6999V11.4999H7.8252C8.0752 11.4999 8.3252 11.3999 8.5002 11.2249L9.3252 10.4249C11.0502 10.8499 12.8502 10.3749 14.1002 9.12495C16.0502 7.12495 16.0502 3.89995 14.0752 1.92495ZM13.2752 8.29995C12.2502 9.32495 10.7252 9.69995 9.3002 9.22495C9.1002 9.14995 8.8752 9.19995 8.7252 9.34995L7.7252 10.3499H7.0502C6.7502 10.3499 6.4752 10.5999 6.4752 10.9249V11.5249L6.0252 11.4749C5.8752 11.4499 5.7252 11.4999 5.6002 11.5999C5.4752 11.6999 5.4002 11.8249 5.4002 11.9749L5.3252 12.7249L4.5752 12.7999C4.4252 12.8249 4.2752 12.8999 4.2002 12.9999C4.1002 13.1249 4.0502 13.2749 4.0752 13.4249L4.1502 13.9749L3.6752 14.4499H1.5752V12.3499L6.6002 7.32495C6.7502 7.17495 6.8002 6.94995 6.7252 6.74995C6.2752 5.32495 6.6252 3.79995 7.6752 2.74995C8.4252 1.99995 9.4002 1.59995 10.4752 1.59995C11.5252 1.59995 12.5252 1.99995 13.2752 2.74995C14.8252 4.24995 14.8252 6.74995 13.2752 8.29995Z" fill="#666666"/>
<path d="M11.3498 2.875C10.8748 2.875 10.4248 3.05 10.0748 3.4C9.3748 4.1 9.3748 5.225 10.0748 5.925C10.4248 6.275 10.8748 6.45 11.3498 6.45C11.8248 6.45 12.2748 6.275 12.6248 5.925C12.9748 5.575 13.1498 5.125 13.1498 4.65C13.1498 4.175 12.9748 3.725 12.6248 3.375C12.2748 3.05 11.8248 2.875 11.3498 2.875ZM11.8248 5.125C11.5748 5.375 11.1248 5.375 10.8748 5.125C10.6248 4.875 10.6248 4.45 10.8748 4.175C10.9998 4.05 11.1748 3.975 11.3498 3.975C11.5248 3.975 11.6998 4.05 11.8248 4.175C11.9498 4.3 12.0248 4.475 12.0248 4.65C12.0248 4.825 11.9498 5 11.8248 5.125Z" fill="#666666"/>
</g>
</g>
<defs>
<clipPath id="clip0_8_151">
<rect width="16" height="16" fill="white"/>
</clipPath>
</defs>
</svg>
