<svg width="16" height="16" viewBox="0 0 16 16" fill="none" xmlns="http://www.w3.org/2000/svg">
<path d="M8.00039 6.92505C9.85039 6.92505 11.3504 5.47505 11.3504 3.67505C11.3504 1.87505 9.85039 0.425049 8.00039 0.425049C6.15039 0.425049 4.65039 1.87505 4.65039 3.67505C4.65039 5.47505 6.15039 6.92505 8.00039 6.92505ZM8.00039 1.57505C9.22539 1.57505 10.2254 2.52505 10.2254 3.70005C10.2254 4.87505 9.22539 5.82505 8.00039 5.82505C6.77539 5.82505 5.77539 4.87505 5.77539 3.70005C5.77539 2.52505 6.77539 1.57505 8.00039 1.57505Z" fill="#666666"/>
<path d="M9.62539 8.05005H6.37539C3.70039 8.05005 1.52539 10.2501 1.52539 12.9251V15.0001C1.52539 15.3001 1.77539 15.5751 2.10039 15.5751C2.42539 15.5751 2.67539 15.3251 2.67539 15.0001V12.9251C2.67539 10.8751 4.35039 9.17505 6.42539 9.17505H9.65039C11.7004 9.17505 13.4004 10.8501 13.4004 12.9251V15.0001C13.4004 15.3001 13.6504 15.5751 13.9754 15.5751C14.3004 15.5751 14.5504 15.3251 14.5504 15.0001V12.9251C14.4754 10.2501 12.3004 8.05005 9.62539 8.05005Z" fill="#666666"/>
</svg>
